<svg xmlns="http://www.w3.org/2000/svg" enable-background="new 0 0 66 66" viewBox="0 0 66 66" id="coding"><rect width="15.205" height="6.473" x="16.58" y="55.951" fill="#FAA919"></rect><rect width="45.577" height="33.431" x="1.32" y="22.52" fill="#E4E4E4"></rect><rect width="38.966" height="27.537" x="4.626" y="25.467" fill="#FFF"></rect><rect width="22.602" height="4.632" x="12.882" y="60.346" fill="#E4E4E4"></rect><path fill="#E4E4E4" d="M63.6996,64.8977H43.594c-0.5413,0-0.9802-0.4389-0.9802-0.9803V47.4497
			c0-0.5414,0.4389-0.9803,0.9802-0.9803h20.1056c0.5414,0,0.9803,0.4389,0.9803,0.9803v16.4677
			C64.6799,64.4588,64.241,64.8977,63.6996,64.8977z"></path><path fill="#E4E4E4" d="M64.6799,51.5254H42.6138v-4.0757c0-0.5414,0.4389-0.9803,0.9802-0.9803h20.1056
			c0.5414,0,0.9803,0.4389,0.9803,0.9803V51.5254z"></path><circle cx="61.859" cy="48.997" r=".907" fill="#FFF"></circle><circle cx="59.205" cy="48.997" r=".907" fill="#FFF"></circle><circle cx="56.55" cy="48.997" r=".907" fill="#FFF"></circle><path fill="#E4E4E4" d="M63.2906,21.5351H50.8958c-0.5908,0-1.0696-0.4789-1.0696-1.0696V2.0912
		c0-0.5907,0.4788-1.06961,1.0696-1.06961h12.3948c0.5908,0,1.0696,0.47891,1.0696,1.06961v18.3743
		C64.3602,21.0562,63.8814,21.5351,63.2906,21.5351z"></path><rect width="10.172" height="15.387" x="52.007" y="3.29" fill="#459FD8"></rect><path fill="#E4E4E4" d="M34.33465,37.885v2.8139l-1.8689,0.2821c-0.21863,1.1072-0.65587,2.1369-1.26236,3.04659l1.09311,1.48091
			l-1.98878,1.9889l-1.48804-1.1002c-0.92386,0.6136-1.96765,1.0437-3.08895,1.2482l-0.26799,1.8125h-2.8139l-0.27505-1.8548
			c-1.09311-0.2326-2.11572-0.6841-3.01138-1.3046l-1.5233,1.1213l-1.98878-1.9887l1.16362-1.5728
			c-0.57124-0.8885-0.97319-1.8971-1.17067-2.969l-1.96058-0.2962v-2.8139l2.02407-0.3103
			c0.23269-1.0437,0.65586-2.0029,1.23416-2.85631l-1.22009-1.65019l1.98878-1.9887l1.68553,1.2412
			c0.86037-0.5572,1.82654-0.9521,2.8562-1.1708l0.30325-2.031h2.8139l0.30329,2.031c1.05079,0.2187,2.03104,0.6278,2.89852,1.1919
			l1.60792-1.1848L32.367,33.04l-1.17067,1.5938c0.59237,0.8816,1.0226,1.89,1.24824,2.9691L34.33465,37.885z"></path><path fill="#FFF" d="M26.66563,41.0407v3.5301c-0.76995,0.37-1.63995,0.58-2.55999,0.58c-0.90998,0-1.77997-0.21-2.54999-0.58
		v-3.5301l2.64001-3.7799L26.66563,41.0407z"></path><path fill="#E4E4E4" d="M20.11135,11.1188c-0.1516-0.7243-0.43793-1.3897-0.83382-1.97921l0.78329-1.06129L18.73853,6.756
				l-1.06967,0.7917c-0.58115-0.379-1.2297-0.6486-1.92878-0.7917l-0.20213-1.3476H13.6682L13.466,6.756
				c-0.6822,0.1431-1.3307,0.4042-1.9034,0.7748l-1.1202-0.8254L9.12,8.0278l0.817,1.1033
				c-0.3874,0.5643-0.6654,1.2044-0.8254,1.8951l-1.3392,0.2106v1.8697l1.2971,0.1938c0.1348,0.7159,0.4043,1.38129,0.7748,1.9708
				l-0.7664,1.0528l1.3223,1.3224l1.0108-0.74971c0.5979,0.41281,1.2801,0.716,2.0045,0.86761l0.1853,1.2297h1.8698l0.17684-1.2044
				c0.74119-0.1348,1.44027-0.4212,2.05509-0.8255l0.98542,0.7328l1.32234-1.3224l-0.72433-0.9854
				c0.40427-0.60641,0.69065-1.2886,0.83382-2.0298l1.24657-0.1853v-1.8698L20.11135,11.1188z M14.5694,15.4311
				c-1.7856,0-3.2343-1.4486-3.2343-3.2257c0-1.7856,1.4487-3.2343,3.2343-3.2343c1.78555,0,3.22577,1.4487,3.22577,3.2343
				C17.79517,13.9825,16.35495,15.4311,14.5694,15.4311z"></path><path fill="#FAA919" d="M36.4451 7.0082c-.1129-.5395-.3262-1.0351-.6211-1.4743l.5835-.7905-.985-.985-.79674.5897c-.43289-.2823-.91598-.483-1.43671-.5897l-.15056-1.00381h-1.39274L31.49519 3.7584c-.50817.1067-.99126.3011-1.41787.57719L29.24291 3.7208l-.98498.985.60857.82179C28.5779 5.9479 28.37085 6.4247 28.25165 6.9392L27.25416 7.096v1.3928l.96613.1443c.1004.5332.30117 1.0289.57717 1.468l-.57089.7842.98498.985.75285-.5584c.44541.3075.95358.5333 1.49314.6463l.13801.9159h1.39278l.13172-.8971c.55209-.10041 1.07282-.3137 1.53079-.6149l.73406.5459.9849-.985-.5395-.734c.3011-.4517.5144-.9599.6211-1.512l.9285-.138V7.1462L36.4451 7.0082zM32.31704 10.2203c-1.33002 0-2.40912-1.079-2.40912-2.4028 0-1.33 1.0791-2.4091 2.40912-2.4091 1.33002 0 2.4028 1.0791 2.4028 2.4091C34.71984 9.1413 33.64706 10.2203 32.31704 10.2203zM57.6274 61.234h-7.9612c-.3566 0-.6457-.2891-.6457-.6457v-4.9986c0-.3566.2891-.6457.6457-.6457h7.9612c.3566 0 .6457.2891.6457.6457v4.9986C58.2731 60.9449 57.984 61.234 57.6274 61.234z"></path><polygon fill="#FFF" points="55.113 58.095 52.181 59.607 52.181 56.571"></polygon><g><path fill="#2F1854" d="M35.4839,59.8467h-22.602c-0.2764,0-0.5,0.2236-0.5,0.5v4.6318c0,0.2764,0.2236,0.5,0.5,0.5h22.602
			c0.2763,0,0.5-0.2236,0.5-0.5v-4.6318C35.9839,60.0703,35.7602,59.8467,35.4839,59.8467z M34.98385,64.4785H13.3819v-3.6318
			h21.60195V64.4785z"></path><path fill="#2F1854" d="M63.6997 45.9697H47.3969V22.5205c0-.2763-.2236-.5-.5-.5H1.3203c-.2763 0-.5.2237-.5.5v33.4307c0 .27639.2237.5.5.5h40.7934v7.4658c0 .8164.6641 1.4805 1.4805 1.4805h20.1055c.8159 0 1.48-.6641 1.48-1.4805V51.5254v-4.0752C65.1797 46.6338 64.5156 45.9697 63.6997 45.9697zM64.1797 47.4502v3.5752h-21.066v-3.5752c0-.9283.4572-.2694 20.586-.4805C63.9643 46.9697 64.1797 47.18559 64.1797 47.4502zM43.0918 46.0635c-.5686.2068-.9781.7475-.9781 1.3867 0 .1139 0 5.2006 0 5.0537H5.1255V25.9668h37.9663V46.0635zM1.8203 55.4512V23.0205h44.5766v22.9492h-2.3051V24.9668H4.1255v28.5371h37.9882v1.9473H1.8203zM63.6997 64.3975H43.5942c-.2651 0-.4805-.2158-.4805-.4805V52.0254h21.066V63.917C64.1797 64.1817 63.9643 64.3975 63.6997 64.3975zM50.896 22.0352h12.3945c.8657 0 1.5698-.7041 1.5698-1.5694V2.0908c0-.86521-.7041-1.5693-1.5698-1.5693H50.896c-.8658 0-1.5699.70409-1.5699 1.5693v18.375C49.3261 21.3311 50.0302 22.0352 50.896 22.0352zM50.3261 2.0908c0-.3134.2559-.5693.5699-.5693h12.3945c.314 0 .5698.2559.5698.5693v18.375c0 .3135-.2558.5694-.5698.5694H50.896c-.314 0-.5699-.2559-.5699-.5694V2.0908z"></path><path fill="#2F1854" d="M13.8081,41.0869l1.61576,0.2452c0.20019,0.8857,0.53125,1.7246,0.9873,2.5l-0.9624,1.3007
			c-0.14746,0.1993-0.12695,0.4766,0.04834,0.6514l1.98877,1.9893c0.17383,0.1728,0.4497,0.1953,0.6499,0.0488l1.2417-0.9141
			c0.79248,0.5039,1.64844,0.874,2.55176,1.1045l0.22509,1.5186c0.03614,0.2451,0.24659,0.4267,0.49463,0.4267h2.81391
			c0.24805,0,0.4585-0.1816,0.49463-0.4267l0.2168-1.4658c0.92676-0.2081,1.80713-0.5645,2.62403-1.0616l1.21191,0.8955
			c0.19873,0.1465,0.47559,0.127,0.65088-0.04881l1.98877-1.98829c0.1748-0.1748,0.1958-0.4511,0.04883-0.6504l-0.88867-1.205
			c0.49365-0.8057,0.85302-1.6709,1.0708-2.5821l1.52832-0.2314c0.24463-0.0371,0.42529-0.2471,0.42529-0.4942v-2.8144
			c0-0.2481-0.18115-0.458-0.42627-0.49421l-1.55225-0.23239c-0.22265-0.88961-0.57568-1.7295-1.05322-2.5058l0.96729-1.3164
			c0.14648-0.1993,0.12548-0.4746-0.04932-0.6495l-1.98877-1.9892c-0.17529-0.1748-0.45117-0.1953-0.65039-0.0488l-1.33447,0.9843
			c-0.75635-0.4511-1.57129-0.7871-2.43116-1l-0.25292-1.6943c-0.03662-0.2441-0.24707-0.4258-0.49463-0.4258h-2.81391
			c-0.24756,0-0.45801,0.1817-0.49463,0.4258l-0.25293,1.6953c-0.84961,0.2139-1.6499,0.542-2.3872,0.9776l-1.41358-1.0401
			c-0.1997-0.1474-0.47509-0.1269-0.6499,0.0488l-1.98877,1.9893c-0.17529,0.1748-0.1958,0.4521-0.04834,0.6514l1.01416,1.3701
			c-0.46338,0.7451-0.80957,1.5478-1.0332,2.3945l-1.69283,0.2598c-0.2442,0.0371-0.4244,0.247-0.4244,0.4941v2.8135
			C13.3828,40.8399,13.5635,41.0498,13.8081,41.0869z M14.3828,38.208l1.59965-0.2451c0.20361-0.0312,0.36768-0.1846,0.41211-0.3857
			c0.21484-0.9619,0.60547-1.8653,1.16064-2.68461c0.11866-0.17579,0.11426-0.40719-0.0122-0.57809l-0.96387-1.3028l1.38037-1.3808
			l1.33936,0.9863c0.1665,0.1231,0.39355,0.1299,0.56787,0.0176c0.81006-0.5244,1.71435-0.8945,2.68847-1.1016
			c0.20411-0.0439,0.35987-0.209,0.39063-0.415l0.23926-1.6055h1.95263l0.2392,1.6055c0.03125,0.207,0.1875,0.373,0.39258,0.415
			c0.97949,0.2041,1.89746,0.5821,2.72851,1.1221c0.17481,0.1162,0.40137,0.1084,0.56934-0.0166l1.26172-0.9307l1.38086,1.3819
			l-0.91651,1.248c-0.125,0.1699-0.12988,0.3994-0.0122,0.5742c1.40026,2.086,0.87043,3.0794,1.58984,3.1846l1.46338,0.2188v1.95409
			c-1.0849,0.24351-1.74801,0.05311-1.85938,0.61521c-0.20214,1.0224-0.60156,1.9873-1.1875,2.8652
			c-0.11669,0.1748-0.11132,0.4043,0.01368,0.5742l0.8374,1.1348l-1.37988,1.3799l-1.14161-0.8438
			c-0.16992-0.124-0.39843-0.1308-0.57373-0.0146c-0.88769,0.5898-1.86377,0.9844-2.90185,1.1728
			c-0.21094,0.0391-0.37402,0.2071-0.40521,0.419l-0.20508,1.3857h-1.95117l-0.21143-1.4277
			c-0.03076-0.2061-0.18603-0.3721-0.39014-0.416c-1.01611-0.2168-1.96875-0.6299-2.83154-1.2266
			c-0.17578-0.12111-0.40869-0.12011-0.58105,0.0088l-1.17676,0.8662l-1.38037-1.3808l0.90722-1.2256
			c0.12354-0.167,0.13086-0.3936,0.01856-0.5684c-0.54444-0.8467-0.91455-1.7851-1.09961-2.789
			c-0.03858-0.21-0.20606-0.3721-0.41699-0.4034l-1.5352-0.2324V38.208z"></path><path fill="#2F1854" d="M24.1055,45.6504c3.50061,0,6.41009-2.8055,6.41009-6.4199c0-3.5342-2.87549-6.4092-6.41009-6.4092
			c-3.53418,0-6.40967,2.875-6.40967,6.4092C17.69583,42.71,20.51309,45.6504,24.1055,45.6504z M26.16549,44.2364
			c-0.65603,0.2679-0.96918,0.3101-1.56,0.3631v-2.6786c0-0.27631-0.22363-0.5-0.5-0.5c-0.27637,0-0.5,0.22369-0.5,0.5v2.6772
			c-0.40025-0.0369-0.75176-0.0483-1.46442-0.3266c-0.02869-0.0111-0.05688-0.0233-0.08539-0.03491V41.1983l2.12647-3.045
			l1.98334,3.0362V44.2364z M24.1055,33.8213c5.33778,0,7.39514,6.91629,3.05999,9.8806V41.041
			c0-0.0966-0.02832-0.1923-0.08154-0.27341l-2.46966-3.78029c-0.09082-0.1386-0.24463-0.2236-0.41065-0.2265
			c-0.18213-0.0371-0.32324,0.0781-0.41797,0.21379l-2.64013,3.78031c-0.0586,0.084-0.08985,0.1836-0.08985,0.2861v2.6618
			c-1.45373-0.9976-2.35986-2.67421-2.35986-4.4723C18.69583,36.2481,21.12259,33.8213,24.1055,33.8213z"></path><circle cx="57.093" cy="19.85" r=".695" fill="#2F1854"></circle></g></svg>